<svg xmlns="http://www.w3.org/2000/svg" viewBox="0 0 1920 1080">
  <path fill-rule="evenodd" d="M155.21 392.883c51.666-.05 69.022 34.394 69.071 94.841.054 60.241-18.189 141.01-36.431 222.318l-2.188 9.758c-17.486 78.067-34.296 155.894-34.244 215.8.03 30.18 8.723 64.672 43.11 64.634 95.024-.079 245.917-409.524 379.622-409.642 85.71-.076 56.769 309.124 77.165 489.419L0 1080l.002-640.082c60.006-27.388 114.853-47 155.208-47.035ZM1329.569 495.29c129.696-.108 496.743 430.155 574.537 430.086 7.512-.008 12.573-3.262 15.895-8.002L1920 1080l-222.93-.013c-67.41-50.964-125.017-85.288-163.92-85.253-39.234.033-62.438 35.072-78.51 85.253l-661.562.024c49.343-165.225 83.41-433.609 161.203-433.677 107.743-.098 159.91 314.28 272.26 314.172 47.255-.039 51.616-60.377 51.528-159.403l-.127-146.457c-.089-94.831 4.164-159.306 51.627-159.355Zm444.35-431.333c39.288-.035 89.986 11.881 146.081 29.531l.002 763.75c-36.949-147.518-240.887-488.68-241.056-676.748-.069-69.092 25.862-116.473 94.973-116.533ZM1398.154-.002c35.329 109.422 112.648 235.715 112.709 305.444.029 30.2-21.444 51.724-47.453 51.744-103.696.097-216.055-331.582-367.381-331.444C910.46 25.91 967.04 504.24 837.382 504.357c-125 .109 25.53-486.878-203.285-486.672-138.224.128-284.756 220.078-371.194 220.156-21.56.019-43.12-8.645-43.15-34.571-.042-46.513 67.82-124.445 130.291-203.27ZM46.562-.013a44.73 44.73 0 0 1 .325 5.388C46.912 34 28.944 69.571.022 109.051L0 0Z"/>
</svg>
